<?xml version="1.0" encoding="UTF-8"?>
<!DOCTYPE svg PUBLIC "-//W3C//DTD SVG 1.1//EN" "http://www.w3.org/Graphics/SVG/1.1/DTD/svg11.dtd">
<svg xmlns="http://www.w3.org/2000/svg" version="1.1" width="965px" height="790px" style="shape-rendering:geometricPrecision; text-rendering:geometricPrecision; image-rendering:optimizeQuality; fill-rule:evenodd; clip-rule:evenodd" xmlns:xlink="http://www.w3.org/1999/xlink">
<g><path style="opacity:0.95" fill="#19191a" d="M 583.5,8.5 C 584.289,8.78281 584.956,9.28281 585.5,10C 606.198,10.8058 626.864,12.1391 647.5,14C 656.945,15.0223 666.279,16.689 675.5,19C 695.409,26.1217 714.409,35.1217 732.5,46C 739.063,45.629 744.563,47.7957 749,52.5C 756.543,60.7359 762.543,70.0692 767,80.5C 791.148,152.789 821.814,222.122 859,288.5C 865.431,303.893 871.098,319.56 876,335.5C 894.163,367.164 912.83,398.497 932,429.5C 931.794,440.278 930.461,450.944 928,461.5C 922.222,487.947 914.888,513.947 906,539.5C 902.286,547.438 897.12,554.271 890.5,560C 881.142,568.029 871.808,576.029 862.5,584C 855.762,589.918 848.095,591.918 839.5,590C 836.048,589.108 833.048,587.442 830.5,585C 812.228,566.387 798.394,544.887 789,520.5C 788.174,515.411 788.508,510.411 790,505.5C 796.908,500.295 804.074,495.462 811.5,491C 812.542,489.082 813.708,487.249 815,485.5C 821.092,469.557 826.592,453.39 831.5,437C 827.205,423.115 822.705,409.282 818,395.5C 806.928,392.146 795.928,388.48 785,384.5C 777.205,385.657 769.705,387.824 762.5,391C 761.299,391.903 760.465,393.069 760,394.5C 754.574,411.195 750.907,428.195 749,445.5C 757.667,457.5 766.333,469.5 775,481.5C 782.628,492.206 782.294,502.54 774,512.5C 767.226,520.277 760.059,527.777 752.5,535C 746.5,538.333 740.5,538.333 734.5,535C 710.942,509.048 690.442,480.881 673,450.5C 671.133,446.534 669.967,442.367 669.5,438C 678.77,398.522 690.27,359.688 704,321.5C 707.752,318.371 711.919,315.871 716.5,314C 728.8,309.432 740.633,303.932 752,297.5C 752.667,295.5 752.667,293.5 752,291.5C 733.697,255.228 715.697,218.895 698,182.5C 695.455,177.239 692.288,172.406 688.5,168C 676.95,165.484 665.617,162.151 654.5,158C 638.998,150.926 622.998,144.926 606.5,140C 600.435,136.301 594.102,133.134 587.5,130.5C 567.962,148.873 548.629,167.373 529.5,186C 533.978,184.622 538.644,184.289 543.5,185C 546.887,188.075 549.054,191.908 550,196.5C 551.479,203.82 552.812,211.153 554,218.5C 555.36,240.523 555.86,262.523 555.5,284.5C 573.339,293.919 590.006,305.086 605.5,318C 611.708,324.539 617.541,331.373 623,338.5C 630.878,351.005 635.212,364.672 636,379.5C 636.989,405.525 635.489,431.358 631.5,457C 632.022,457.561 632.355,458.228 632.5,459C 630.341,469.395 628.841,479.895 628,490.5C 627.691,491.766 627.191,492.933 626.5,494C 619.625,495.883 612.625,496.716 605.5,496.5C 607.936,470.479 610.436,444.479 613,418.5C 613.667,404.167 613.667,389.833 613,375.5C 608.213,350.045 593.046,335.545 567.5,332C 516.993,331.614 471.66,346.614 431.5,377C 390.554,409.624 361.721,450.791 345,500.5C 341.825,516.366 340.491,532.366 341,548.5C 342.136,556.186 343.47,563.853 345,571.5C 354.577,595.011 367.91,616.011 385,634.5C 403.002,652.168 420.668,670.168 438,688.5C 451.556,703.735 460.222,721.402 464,741.5C 464.965,747.657 464.465,753.657 462.5,759.5C 459.386,761.062 456.553,760.729 454,758.5C 450.18,744.193 444.18,730.859 436,718.5C 432.984,714.223 429.151,712.889 424.5,714.5C 425.727,720.274 428.56,725.274 433,729.5C 438.999,738.499 442.832,748.332 444.5,759C 444.333,760.5 443.5,761.333 442,761.5C 437.275,754.433 431.775,747.933 425.5,742C 417.404,734.568 408.737,727.901 399.5,722C 373.499,707.833 347.165,694.5 320.5,682C 296.679,669.59 274.346,654.923 253.5,638C 246.926,632.096 241.092,625.596 236,618.5C 234.377,615.673 233.21,612.673 232.5,609.5C 232.833,608.5 233.5,607.833 234.5,607.5C 248.445,615.306 262.778,622.306 277.5,628.5C 278.287,627.758 278.953,626.925 279.5,626C 271.737,619.584 263.404,613.917 254.5,609C 228.05,586.532 209.55,558.699 199,525.5C 183.751,469.468 186.751,414.468 208,360.5C 218.737,337.682 232.403,316.682 249,297.5C 247.087,264.119 249.754,231.119 257,198.5C 260.051,187.097 267.217,182.93 278.5,186C 293.58,193.04 308.247,200.874 322.5,209.5C 333.929,217.961 345.429,226.295 357,234.5C 367.074,232.542 377.241,231.209 387.5,230.5C 383.734,216.728 384.234,203.061 389,189.5C 395.365,179.462 402.865,170.295 411.5,162C 455.958,123.203 501.291,85.5358 547.5,49C 550.107,44.5178 551.941,39.6844 553,34.5C 559.972,22.0234 570.139,13.3567 583.5,8.5 Z M 617.5,41.5 C 628.587,44.8026 639.92,46.9693 651.5,48C 673.212,54.6184 693.879,63.4517 713.5,74.5C 714.167,75.5 714.833,76.5 715.5,77.5C 726.029,79.0265 731.696,85.0265 732.5,95.5C 731.928,111.155 725.261,123.321 712.5,132C 709.289,133.348 705.956,134.182 702.5,134.5C 700.307,134.674 698.473,134.007 697,132.5C 696.581,133.672 695.915,134.672 695,135.5C 669.927,126.142 644.76,116.975 619.5,108C 614.129,104.663 608.796,101.329 603.5,98C 601.212,97.1779 598.878,96.5112 596.5,96C 594.194,91.2399 591.027,87.0732 587,83.5C 582.842,75.3595 579.676,66.8595 577.5,58C 578,56.5 578.5,55 579,53.5C 584.626,49.6277 590.46,46.1277 596.5,43C 601.354,42.3803 606.187,42.547 611,43.5C 613.484,43.5033 615.651,42.8366 617.5,41.5 Z M 530.5,141.5 C 528.456,130.074 522.456,121.407 512.5,115.5C 526.104,105.742 539.604,95.7418 553,85.5C 556.689,93.192 560.023,100.859 563,108.5C 551.992,119.341 541.159,130.341 530.5,141.5 Z M 502.5,123.5 C 504.142,132.28 508.142,140.113 514.5,147C 516.925,148.213 519.259,149.379 521.5,150.5C 516.833,154.5 512.5,158.833 508.5,163.5C 506.492,154.662 501.825,147.495 494.5,142C 485.559,141.278 481.726,145.445 483,154.5C 485.271,163.273 490.438,169.44 498.5,173C 497.944,173.383 497.611,173.883 497.5,174.5C 493.806,177.527 490.473,180.86 487.5,184.5C 486.833,184.833 486.167,185.167 485.5,185.5C 485.579,182.729 485.079,180.063 484,177.5C 480.586,171.003 476.919,164.67 473,158.5C 465.109,154.697 460.275,157.197 458.5,166C 460.976,174.763 464.976,182.763 470.5,190C 473.089,191.197 475.756,192.197 478.5,193C 473.917,198.408 469.25,203.574 464.5,208.5C 458.063,195.975 449.063,185.642 437.5,177.5C 459.211,159.447 480.877,141.447 502.5,123.5 Z M 760.5,167.5 C 750.753,160.606 743.586,162.606 739,173.5C 738.556,184.388 743.723,188.888 754.5,187C 760.171,184.127 763.171,179.627 763.5,173.5C 766.303,181.91 769.303,190.243 772.5,198.5C 767.372,193.347 761.372,192.18 754.5,195C 752.622,196.543 751.122,198.376 750,200.5C 749.856,204.043 749.689,207.376 749.5,210.5C 742.131,194.312 734.131,178.478 725.5,163C 734.549,157.455 742.883,150.955 750.5,143.5C 754.788,151.013 758.122,159.013 760.5,167.5 Z M 440.5,233.5 C 439.439,225.866 436.606,218.533 432,211.5C 428.676,207.427 424.51,204.76 419.5,203.5C 414.327,204.134 411.661,207.134 411.5,212.5C 412.48,217.992 415.314,222.325 420,225.5C 420.402,226.872 420.902,228.205 421.5,229.5C 421.376,230.107 421.043,230.44 420.5,230.5C 417.5,230.5 414.5,230.5 411.5,230.5C 408.96,223.027 408.127,215.361 409,207.5C 409.473,202.857 411.973,200.523 416.5,200.5C 434.778,204.397 442.778,215.397 440.5,233.5 Z M 773.5,201.5 C 777.132,209.436 780.798,217.436 784.5,225.5C 773.525,219.631 766.192,222.964 762.5,235.5C 758.954,229.075 755.954,222.408 753.5,215.5C 767.049,220.614 773.716,215.947 773.5,201.5 Z M 789.5,236.5 C 793.33,245.143 796.83,253.81 800,262.5C 798.6,261.884 797.1,261.551 795.5,261.5C 789.455,262.454 783.455,263.287 777.5,264C 774.281,257.727 770.948,251.56 767.5,245.5C 767.435,245.062 767.601,244.728 768,244.5C 778.61,251.02 785.776,248.353 789.5,236.5 Z M 826.5,315.5 C 820.196,310.837 813.53,310.337 806.5,314C 802.455,321.103 801.288,328.603 803,336.5C 808.906,345.686 816.406,347.353 825.5,341.5C 828.523,336.093 830.189,330.426 830.5,324.5C 831.457,331.477 831.623,338.477 831,345.5C 826.18,352.11 819.68,354.61 811.5,353C 789.982,342.116 784.149,325.616 794,303.5C 798.235,299.32 803.068,298.487 808.5,301C 814.486,302.408 819.652,305.242 824,309.5C 825.122,311.407 825.955,313.407 826.5,315.5 Z M 716.5,457.5 C 710.899,452.135 707.232,445.635 705.5,438C 712.948,408.321 721.615,378.987 731.5,350C 736.81,346.775 742.477,344.108 748.5,342C 750.754,340.85 753.087,340.516 755.5,341C 757.37,344.061 758.037,347.227 757.5,350.5C 752.632,352.44 747.632,353.94 742.5,355C 738.388,356.779 735.222,359.612 733,363.5C 722.494,387.685 715.328,412.852 711.5,439C 712.258,445.437 713.925,451.603 716.5,457.5 Z M 855.5,524.5 C 851.296,526.033 847.963,528.7 845.5,532.5C 843.093,533.794 840.926,535.461 839,537.5C 838.15,535.99 837.317,534.49 836.5,533C 839.321,528.846 842.821,525.346 847,522.5C 859.817,498.049 868.65,472.216 873.5,445C 873.226,440.401 872.392,435.901 871,431.5C 865.759,415.451 860.759,399.451 856,383.5C 867.261,399.524 877.094,416.358 885.5,434C 879.481,461.575 871.981,488.742 863,515.5C 860.636,518.69 858.136,521.69 855.5,524.5 Z M 509.5,497.5 C 519.839,497.334 530.172,497.5 540.5,498C 543.875,499.029 545.042,501.196 544,504.5C 538.392,510.298 534.059,516.965 531,524.5C 527.645,529.31 523.979,529.644 520,525.5C 515.974,517.431 511.474,509.765 506.5,502.5C 506.757,500.308 507.757,498.641 509.5,497.5 Z"/></g>
<g><path style="opacity:0.921" fill="#19191a" d="M 604.5,44.5 C 608.182,44.3347 611.848,44.5014 615.5,45C 620.833,49.3333 620.833,53.6667 615.5,58C 606.634,57.0536 602.801,60.8869 604,69.5C 606.216,73.7249 609.216,77.3915 613,80.5C 612.59,89.5487 608.424,91.7153 600.5,87C 589.606,78.9422 586.439,68.4422 591,55.5C 594.872,50.7684 599.372,47.1018 604.5,44.5 Z"/></g>
<g><path style="opacity:0.933" fill="#1a1a1b" d="M 646.5,60.5 C 659.891,58.2775 669.391,63.2775 675,75.5C 677.717,88.9001 672.884,98.4001 660.5,104C 647.1,106.717 637.6,101.884 632,89.5C 629.414,76.0057 634.247,66.339 646.5,60.5 Z"/></g>
<g><path style="opacity:0.675" fill="#000000" d="M 713.5,80.5 C 722.36,79.1661 727.527,82.8328 729,91.5C 730.909,104.786 726.743,115.619 716.5,124C 709.828,127.996 704.495,126.663 700.5,120C 704.911,106.856 709.244,93.6892 713.5,80.5 Z"/></g>
<g><path style="opacity:0.543" fill="#000000" d="M 512.5,115.5 C 522.456,121.407 528.456,130.074 530.5,141.5C 527.86,144.806 524.86,147.806 521.5,150.5C 519.259,149.379 516.925,148.213 514.5,147C 508.142,140.113 504.142,132.28 502.5,123.5C 505.52,120.484 508.854,117.817 512.5,115.5 Z"/></g>
<g><path style="opacity:0.543" fill="#000000" d="M 508.5,163.5 C 505.091,167.575 501.425,171.242 497.5,174.5C 497.611,173.883 497.944,173.383 498.5,173C 490.438,169.44 485.271,163.273 483,154.5C 481.726,145.445 485.559,141.278 494.5,142C 501.825,147.495 506.492,154.662 508.5,163.5 Z"/></g>
<g><path style="opacity:0.527" fill="#000000" d="M 485.5,185.5 C 486.167,185.167 486.833,184.833 487.5,184.5C 484.94,188.57 481.773,192.236 478,195.5C 474.951,201.383 470.451,205.716 464.5,208.5C 469.25,203.574 473.917,198.408 478.5,193C 475.756,192.197 473.089,191.197 470.5,190C 464.976,182.763 460.976,174.763 458.5,166C 460.275,157.197 465.109,154.697 473,158.5C 476.919,164.67 480.586,171.003 484,177.5C 485.079,180.063 485.579,182.729 485.5,185.5 Z"/></g>
<g><path style="opacity:0.526" fill="#000000" d="M 760.5,167.5 C 760.461,169.224 760.794,169.557 761.5,168.5C 762.537,169.93 763.204,171.597 763.5,173.5C 763.171,179.627 760.171,184.127 754.5,187C 743.723,188.888 738.556,184.388 739,173.5C 743.586,162.606 750.753,160.606 760.5,167.5 Z"/></g>
<g><path style="opacity:0.543" fill="#000000" d="M 772.5,198.5 C 772.263,199.791 772.596,200.791 773.5,201.5C 773.716,215.947 767.049,220.614 753.5,215.5C 753.167,214.167 752.833,214.167 752.5,215.5C 751.599,214.71 750.932,213.71 750.5,212.5C 750.938,212.565 751.272,212.399 751.5,212C 750.584,211.722 749.918,211.222 749.5,210.5C 749.689,207.376 749.856,204.043 750,200.5C 751.122,198.376 752.622,196.543 754.5,195C 761.372,192.18 767.372,193.347 772.5,198.5 Z"/></g>
<g><path style="opacity:0.59" fill="#000000" d="M 440.5,233.5 C 436.934,233.315 433.601,233.981 430.5,235.5C 427.135,233.778 423.802,232.111 420.5,230.5C 421.043,230.44 421.376,230.107 421.5,229.5C 420.902,228.205 420.402,226.872 420,225.5C 415.314,222.325 412.48,217.992 411.5,212.5C 411.661,207.134 414.327,204.134 419.5,203.5C 424.51,204.76 428.676,207.427 432,211.5C 436.606,218.533 439.439,225.866 440.5,233.5 Z"/></g>
<g><path style="opacity:0.529" fill="#000000" d="M 784.5,225.5 C 786.403,228.979 788.07,232.646 789.5,236.5C 785.776,248.353 778.61,251.02 768,244.5C 767.601,244.728 767.435,245.062 767.5,245.5C 765.326,242.485 763.659,239.151 762.5,235.5C 766.192,222.964 773.525,219.631 784.5,225.5 Z"/></g>
<g><path style="opacity:0.613" fill="#000000" d="M 826.5,315.5 C 828.974,317.898 830.308,320.898 830.5,324.5C 830.189,330.426 828.523,336.093 825.5,341.5C 816.406,347.353 808.906,345.686 803,336.5C 801.288,328.603 802.455,321.103 806.5,314C 813.53,310.337 820.196,310.837 826.5,315.5 Z"/></g>
<g><path style="opacity:0.94" fill="#19191a" d="M 505.5,428.5 C 517.265,425.974 526.432,429.641 533,439.5C 537.025,450.382 543.192,459.882 551.5,468C 559.87,471.593 568.537,474.26 577.5,476C 578.667,477.167 579.833,478.333 581,479.5C 582.551,486.418 582.884,493.418 582,500.5C 577.616,502.127 573.116,503.46 568.5,504.5C 564.286,507.709 564.786,510.042 570,511.5C 573.714,510.131 577.547,509.464 581.5,509.5C 581.178,514.587 580.345,519.587 579,524.5C 578.5,525 578,525.5 577.5,526C 573.833,526.333 570.167,526.667 566.5,527C 562.318,530.355 562.984,532.688 568.5,534C 570.134,534.494 571.801,534.66 573.5,534.5C 558.619,565.873 534.952,588.373 502.5,602C 477.151,609.921 452.151,608.921 427.5,599C 420.769,595.386 414.102,591.886 407.5,588.5C 407.343,587.127 407.51,585.793 408,584.5C 420.015,570.481 433.849,558.647 449.5,549C 457.747,544.807 466.081,540.807 474.5,537C 475.711,535.887 475.711,534.72 474.5,533.5C 471.894,532.348 469.227,532.182 466.5,533C 450.293,539.102 435.626,547.769 422.5,559C 414.785,566.61 406.952,574.11 399,581.5C 388.825,573.995 380.825,564.662 375,553.5C 374.251,552.365 374.417,551.365 375.5,550.5C 386.33,545.12 397.664,540.953 409.5,538C 419.768,535.754 430.101,533.588 440.5,531.5C 441.44,528.239 440.106,526.239 436.5,525.5C 414.456,528.64 393.122,534.306 372.5,542.5C 370.173,541.275 369.006,539.275 369,536.5C 368.333,533.167 368.333,529.833 369,526.5C 370.579,524.959 372.413,523.792 374.5,523C 385.428,520.614 396.428,518.614 407.5,517C 430.159,515.348 452.825,515.014 475.5,516C 477.283,514.933 477.783,513.433 477,511.5C 474.734,510.044 472.234,509.21 469.5,509C 437.538,506.075 405.871,507.909 374.5,514.5C 374.343,513.127 374.51,511.793 375,510.5C 382.321,496.85 393.487,488.017 408.5,484C 421.082,481.561 433.748,479.561 446.5,478C 453.404,475.215 460.071,471.881 466.5,468C 474.029,459.105 481.195,449.939 488,440.5C 492.935,435.044 498.768,431.044 505.5,428.5 Z M 509.5,497.5 C 507.757,498.641 506.757,500.308 506.5,502.5C 511.474,509.765 515.974,517.431 520,525.5C 523.979,529.644 527.645,529.31 531,524.5C 534.059,516.965 538.392,510.298 544,504.5C 545.042,501.196 543.875,499.029 540.5,498C 530.172,497.5 519.839,497.334 509.5,497.5 Z"/></g>
<g><path style="opacity:0.009" fill="#000000" d="M 718.5,459.5 C 720.064,462.274 721.897,464.941 724,467.5C 724.982,468.759 725.315,470.092 725,471.5C 721.995,468.151 719.495,464.484 717.5,460.5C 718.167,460.5 718.5,460.167 718.5,459.5 Z"/></g>
<g><path style="opacity:0.745" fill="#191919" d="M 623.5,502.5 C 633.247,502.507 642.914,503.34 652.5,505C 654.91,505.758 655.91,507.425 655.5,510C 655.91,512.575 654.91,514.242 652.5,515C 636.165,514.05 619.832,513.717 603.5,514C 602.427,510.888 602.427,507.721 603.5,504.5C 610.332,504.049 616.998,503.383 623.5,502.5 Z"/></g>
<g><path style="opacity:0.792" fill="#181819" d="M 601.5,522.5 C 620.818,524.217 638.651,530.217 655,540.5C 655.667,543.5 655.667,546.5 655,549.5C 652.936,550.591 650.769,550.758 648.5,550C 633.035,542.044 616.702,536.377 599.5,533C 598.426,532.261 597.759,531.261 597.5,530C 597.994,526.992 599.327,524.492 601.5,522.5 Z"/></g>
<g><path style="opacity:0.009" fill="#000000" d="M 855.5,524.5 C 852.461,527.54 849.127,530.206 845.5,532.5C 847.963,528.7 851.296,526.033 855.5,524.5 Z"/></g>
<g><path style="opacity:0.888" fill="#19191a" d="M 596.5,540.5 C 602.871,542.176 609.204,544.01 615.5,546C 616.022,546.561 616.355,547.228 616.5,548C 599.957,587.216 576.29,621.549 545.5,651C 535,660.833 524.5,670.667 514,680.5C 510.111,685.371 509.111,690.704 511,696.5C 511.667,702.833 511.667,709.167 511,715.5C 508.414,730.366 507.08,745.366 507,760.5C 503.193,764.79 500.527,764.123 499,758.5C 498.935,741.985 499.435,725.485 500.5,709C 500.479,706.096 499.145,704.262 496.5,703.5C 494.575,703.59 493.408,704.59 493,706.5C 491.964,709.753 491.297,713.086 491,716.5C 490.067,732.489 489.4,748.489 489,764.5C 487.302,765.733 485.302,766.4 483,766.5C 477.849,766.353 474.849,763.686 474,758.5C 466.648,720.943 475.648,688.276 501,660.5C 522.64,641.527 542.973,621.194 562,599.5C 575.556,581.058 587.056,561.391 596.5,540.5 Z"/></g>
</svg>
