<?xml version="1.0" encoding="UTF-8"?>
<!DOCTYPE svg PUBLIC "-//W3C//DTD SVG 1.1//EN" "http://www.w3.org/Graphics/SVG/1.1/DTD/svg11.dtd">
<svg xmlns="http://www.w3.org/2000/svg" version="1.1" width="966px" height="963px" style="shape-rendering:geometricPrecision; text-rendering:geometricPrecision; image-rendering:optimizeQuality; fill-rule:evenodd; clip-rule:evenodd" xmlns:xlink="http://www.w3.org/1999/xlink">
<g><path style="opacity:1" fill="#fefefe" d="M 583.5,8.5 C 584.289,8.78281 584.956,9.28281 585.5,10C 606.198,10.8058 626.864,12.1391 647.5,14C 656.945,15.0223 666.279,16.689 675.5,19C 695.409,26.1217 714.409,35.1217 732.5,46C 739.063,45.629 744.563,47.7957 749,52.5C 756.543,60.7359 762.543,70.0692 767,80.5C 791.148,152.789 821.814,222.122 859,288.5C 865.431,303.893 871.098,319.56 876,335.5C 894.163,367.164 912.83,398.497 932,429.5C 931.794,440.278 930.461,450.944 928,461.5C 922.222,487.947 914.888,513.947 906,539.5C 902.286,547.438 897.12,554.271 890.5,560C 881.142,568.029 871.808,576.029 862.5,584C 855.762,589.918 848.095,591.918 839.5,590C 836.048,589.108 833.048,587.442 830.5,585C 812.228,566.387 798.394,544.887 789,520.5C 788.174,515.411 788.508,510.411 790,505.5C 796.908,500.295 804.074,495.462 811.5,491C 812.542,489.082 813.708,487.249 815,485.5C 821.092,469.557 826.592,453.39 831.5,437C 827.205,423.115 822.705,409.282 818,395.5C 806.928,392.146 795.928,388.48 785,384.5C 777.205,385.657 769.705,387.824 762.5,391C 761.299,391.903 760.465,393.069 760,394.5C 754.574,411.195 750.907,428.195 749,445.5C 757.667,457.5 766.333,469.5 775,481.5C 782.628,492.206 782.294,502.54 774,512.5C 767.226,520.277 760.059,527.777 752.5,535C 746.5,538.333 740.5,538.333 734.5,535C 710.942,509.048 690.442,480.881 673,450.5C 671.133,446.534 669.967,442.367 669.5,438C 678.77,398.522 690.27,359.688 704,321.5C 707.752,318.371 711.919,315.871 716.5,314C 728.8,309.432 740.633,303.932 752,297.5C 752.667,295.5 752.667,293.5 752,291.5C 733.697,255.228 715.697,218.895 698,182.5C 695.455,177.239 692.288,172.406 688.5,168C 676.95,165.484 665.617,162.151 654.5,158C 638.998,150.926 622.998,144.926 606.5,140C 600.435,136.301 594.102,133.134 587.5,130.5C 567.962,148.873 548.629,167.373 529.5,186C 533.978,184.622 538.644,184.289 543.5,185C 546.887,188.075 549.054,191.908 550,196.5C 551.479,203.82 552.812,211.153 554,218.5C 555.36,240.523 555.86,262.523 555.5,284.5C 573.339,293.919 590.006,305.086 605.5,318C 611.708,324.539 617.541,331.373 623,338.5C 630.878,351.005 635.212,364.672 636,379.5C 636.989,405.525 635.489,431.358 631.5,457C 632.022,457.561 632.355,458.228 632.5,459C 630.341,469.395 628.841,479.895 628,490.5C 627.691,491.766 627.191,492.933 626.5,494C 619.625,495.883 612.625,496.716 605.5,496.5C 607.936,470.479 610.436,444.479 613,418.5C 613.667,404.167 613.667,389.833 613,375.5C 608.213,350.045 593.046,335.545 567.5,332C 516.993,331.614 471.66,346.614 431.5,377C 390.554,409.624 361.721,450.791 345,500.5C 341.825,516.366 340.491,532.366 341,548.5C 342.136,556.186 343.47,563.853 345,571.5C 354.577,595.011 367.91,616.011 385,634.5C 403.002,652.168 420.668,670.168 438,688.5C 451.556,703.735 460.222,721.402 464,741.5C 464.965,747.657 464.465,753.657 462.5,759.5C 459.386,761.062 456.553,760.729 454,758.5C 450.18,744.193 444.18,730.859 436,718.5C 432.984,714.223 429.151,712.889 424.5,714.5C 425.727,720.274 428.56,725.274 433,729.5C 438.999,738.499 442.832,748.332 444.5,759C 444.333,760.5 443.5,761.333 442,761.5C 437.275,754.433 431.775,747.933 425.5,742C 417.404,734.568 408.737,727.901 399.5,722C 373.499,707.833 347.165,694.5 320.5,682C 296.679,669.59 274.346,654.923 253.5,638C 246.926,632.096 241.092,625.596 236,618.5C 234.377,615.673 233.21,612.673 232.5,609.5C 232.833,608.5 233.5,607.833 234.5,607.5C 248.445,615.306 262.778,622.306 277.5,628.5C 278.287,627.758 278.953,626.925 279.5,626C 271.737,619.584 263.404,613.917 254.5,609C 228.05,586.532 209.55,558.699 199,525.5C 183.751,469.468 186.751,414.468 208,360.5C 218.737,337.682 232.403,316.682 249,297.5C 247.087,264.119 249.754,231.119 257,198.5C 260.051,187.097 267.217,182.93 278.5,186C 293.58,193.04 308.247,200.874 322.5,209.5C 333.929,217.961 345.429,226.295 357,234.5C 367.074,232.542 377.241,231.209 387.5,230.5C 383.734,216.728 384.234,203.061 389,189.5C 395.365,179.462 402.865,170.295 411.5,162C 455.958,123.203 501.291,85.5358 547.5,49C 550.107,44.5178 551.941,39.6844 553,34.5C 559.972,22.0234 570.139,13.3567 583.5,8.5 Z M 617.5,41.5 C 628.587,44.8026 639.92,46.9693 651.5,48C 673.212,54.6184 693.879,63.4517 713.5,74.5C 714.167,75.5 714.833,76.5 715.5,77.5C 726.029,79.0265 731.696,85.0265 732.5,95.5C 731.928,111.155 725.261,123.321 712.5,132C 709.289,133.348 705.956,134.182 702.5,134.5C 700.307,134.674 698.473,134.007 697,132.5C 696.581,133.672 695.915,134.672 695,135.5C 669.927,126.142 644.76,116.975 619.5,108C 614.129,104.663 608.796,101.329 603.5,98C 601.212,97.1779 598.878,96.5112 596.5,96C 594.194,91.2399 591.027,87.0732 587,83.5C 582.842,75.3595 579.676,66.8595 577.5,58C 578,56.5 578.5,55 579,53.5C 584.626,49.6277 590.46,46.1277 596.5,43C 601.354,42.3803 606.187,42.547 611,43.5C 613.484,43.5033 615.651,42.8366 617.5,41.5 Z M 552.5,85.5 C 555.701,92.2316 559.201,98.8983 563,105.5C 563.667,106.5 563.667,107.5 563,108.5C 552.027,119.473 541.027,130.473 530,141.5C 528.484,129.948 522.651,121.448 512.5,116C 526.018,105.97 539.351,95.8032 552.5,85.5 Z M 485.5,185.5 C 485.579,182.729 485.079,180.063 484,177.5C 480.586,171.003 476.919,164.67 473,158.5C 465.109,154.697 460.275,157.197 458.5,166C 460.976,174.763 464.976,182.763 470.5,190C 473.089,191.197 475.756,192.197 478.5,193C 473.977,198.52 469.144,203.687 464,208.5C 457.958,195.728 449.124,185.395 437.5,177.5C 459.209,159.122 481.209,141.122 503.5,123.5C 504.335,132.67 508.002,140.504 514.5,147C 516.717,148.275 519.051,149.275 521.5,150C 517,154.5 512.5,159 508,163.5C 506.396,154.447 501.896,147.281 494.5,142C 483.778,141.895 480.278,147.062 484,157.5C 486.497,164.993 491.33,170.16 498.5,173C 494.271,177.398 489.938,181.564 485.5,185.5 Z M 760.5,167.5 C 750.753,160.606 743.586,162.606 739,173.5C 738.556,184.388 743.723,188.888 754.5,187C 760.2,184.301 763.033,179.801 763,173.5C 766.272,181.818 769.438,190.151 772.5,198.5C 767.372,193.347 761.372,192.18 754.5,195C 749.708,199.192 748.208,204.359 750,210.5C 742.201,194.4 734.034,178.567 725.5,163C 734.549,157.455 742.883,150.955 750.5,143.5C 754.788,151.013 758.122,159.013 760.5,167.5 Z M 412.5,200.5 C 424.845,200.927 434.011,206.594 440,217.5C 441.359,222.775 441.692,228.109 441,233.5C 440.586,233.043 440.086,232.709 439.5,232.5C 438.894,221.133 433.894,211.966 424.5,205C 416.889,201.806 412.556,204.306 411.5,212.5C 412.48,217.992 415.314,222.325 420,225.5C 420.402,226.872 420.902,228.205 421.5,229.5C 418.232,230.487 414.898,230.82 411.5,230.5C 408.96,223.027 408.127,215.361 409,207.5C 409.653,204.861 410.82,202.527 412.5,200.5 Z M 773.5,201.5 C 777.565,209.625 781.065,217.958 784,226.5C 773.059,219.712 766.059,222.712 763,235.5C 759.019,229.206 755.853,222.539 753.5,215.5C 767.049,220.614 773.716,215.947 773.5,201.5 Z M 788.5,236.5 C 792.725,244.62 796.725,252.954 800.5,261.5C 793.015,261.845 785.348,262.678 777.5,264C 773.859,257.554 770.692,251.054 768,244.5C 775.035,250.225 781.368,249.558 787,242.5C 788.128,240.655 788.628,238.655 788.5,236.5 Z M 826.5,315.5 C 820.196,310.837 813.53,310.337 806.5,314C 801.877,321.871 801.044,330.038 804,338.5C 810.34,346.05 817.507,347.05 825.5,341.5C 828.691,336.291 830.191,330.624 830,324.5C 831.881,332.215 831.881,339.882 830,347.5C 822.141,354.41 813.641,355.243 804.5,350C 788.613,337.292 785.113,321.792 794,303.5C 799.366,298.75 805.2,298.25 811.5,302C 819.083,303.768 824.083,308.268 826.5,315.5 Z M 716.5,457.5 C 710.899,452.135 707.232,445.635 705.5,438C 712.948,408.321 721.615,378.987 731.5,350C 736.81,346.775 742.477,344.108 748.5,342C 750.754,340.85 753.087,340.516 755.5,341C 757.37,344.061 758.037,347.227 757.5,350.5C 752.632,352.44 747.632,353.94 742.5,355C 738.388,356.779 735.222,359.612 733,363.5C 722.494,387.685 715.328,412.852 711.5,439C 712.258,445.437 713.925,451.603 716.5,457.5 Z M 855.5,383.5 C 867.15,399.291 877.15,416.124 885.5,434C 879.481,461.575 871.981,488.742 863,515.5C 860.843,518.656 858.343,521.489 855.5,524C 849.709,528.122 844.209,532.622 839,537.5C 837.249,535.788 836.582,533.788 837,531.5C 840.035,528.13 843.368,525.13 847,522.5C 858.828,499.687 867.494,475.687 873,450.5C 873.835,444.017 873.168,437.684 871,431.5C 865.92,415.429 860.754,399.429 855.5,383.5 Z M 509.5,497.5 C 519.839,497.334 530.172,497.5 540.5,498C 543.875,499.029 545.042,501.196 544,504.5C 538.392,510.298 534.059,516.965 531,524.5C 527.645,529.31 523.979,529.644 520,525.5C 515.974,517.431 511.474,509.765 506.5,502.5C 506.757,500.308 507.757,498.641 509.5,497.5 Z"/></g>
<g><path style="opacity:1" fill="#fefffe" d="M 604.5,44.5 C 608.182,44.3347 611.848,44.5014 615.5,45C 620.833,49.3333 620.833,53.6667 615.5,58C 606.634,57.0536 602.801,60.8869 604,69.5C 606.216,73.7249 609.216,77.3915 613,80.5C 612.59,89.5487 608.424,91.7153 600.5,87C 589.606,78.9422 586.439,68.4422 591,55.5C 594.872,50.7684 599.372,47.1018 604.5,44.5 Z"/></g>
<g><path style="opacity:1" fill="#fefffe" d="M 646.5,60.5 C 659.891,58.2775 669.391,63.2775 675,75.5C 677.717,88.9001 672.884,98.4001 660.5,104C 647.1,106.717 637.6,101.884 632,89.5C 629.414,76.0057 634.247,66.339 646.5,60.5 Z"/></g>
<g><path style="opacity:1" fill="#fefffe" d="M 713.5,80.5 C 722.36,79.1661 727.527,82.8328 729,91.5C 730.909,104.786 726.743,115.619 716.5,124C 709.828,127.996 704.495,126.663 700.5,120C 704.911,106.856 709.244,93.6892 713.5,80.5 Z"/></g>
<g><path style="opacity:1" fill="#fefffe" d="M 505.5,428.5 C 517.265,425.974 526.432,429.641 533,439.5C 537.025,450.382 543.192,459.882 551.5,468C 559.87,471.593 568.537,474.26 577.5,476C 578.667,477.167 579.833,478.333 581,479.5C 582.551,486.418 582.884,493.418 582,500.5C 577.616,502.127 573.116,503.46 568.5,504.5C 564.286,507.709 564.786,510.042 570,511.5C 573.714,510.131 577.547,509.464 581.5,509.5C 581.178,514.587 580.345,519.587 579,524.5C 578.5,525 578,525.5 577.5,526C 573.833,526.333 570.167,526.667 566.5,527C 562.318,530.355 562.984,532.688 568.5,534C 570.134,534.494 571.801,534.66 573.5,534.5C 558.619,565.873 534.952,588.373 502.5,602C 477.151,609.921 452.151,608.921 427.5,599C 420.769,595.386 414.102,591.886 407.5,588.5C 407.343,587.127 407.51,585.793 408,584.5C 420.015,570.481 433.849,558.647 449.5,549C 457.747,544.807 466.081,540.807 474.5,537C 475.711,535.887 475.711,534.72 474.5,533.5C 471.894,532.348 469.227,532.182 466.5,533C 450.293,539.102 435.626,547.769 422.5,559C 414.785,566.61 406.952,574.11 399,581.5C 388.825,573.995 380.825,564.662 375,553.5C 374.251,552.365 374.417,551.365 375.5,550.5C 386.33,545.12 397.664,540.953 409.5,538C 419.768,535.754 430.101,533.588 440.5,531.5C 441.44,528.239 440.106,526.239 436.5,525.5C 414.456,528.64 393.122,534.306 372.5,542.5C 370.173,541.275 369.006,539.275 369,536.5C 368.333,533.167 368.333,529.833 369,526.5C 370.579,524.959 372.413,523.792 374.5,523C 385.428,520.614 396.428,518.614 407.5,517C 430.159,515.348 452.825,515.014 475.5,516C 477.283,514.933 477.783,513.433 477,511.5C 474.734,510.044 472.234,509.21 469.5,509C 437.538,506.075 405.871,507.909 374.5,514.5C 374.343,513.127 374.51,511.793 375,510.5C 382.321,496.85 393.487,488.017 408.5,484C 421.082,481.561 433.748,479.561 446.5,478C 453.404,475.215 460.071,471.881 466.5,468C 474.029,459.105 481.195,449.939 488,440.5C 492.935,435.044 498.768,431.044 505.5,428.5 Z M 509.5,497.5 C 507.757,498.641 506.757,500.308 506.5,502.5C 511.474,509.765 515.974,517.431 520,525.5C 523.979,529.644 527.645,529.31 531,524.5C 534.059,516.965 538.392,510.298 544,504.5C 545.042,501.196 543.875,499.029 540.5,498C 530.172,497.5 519.839,497.334 509.5,497.5 Z"/></g>
<g><path style="opacity:1" fill="#fefffe" d="M 623.5,502.5 C 633.247,502.507 642.914,503.34 652.5,505C 654.91,505.758 655.91,507.425 655.5,510C 655.91,512.575 654.91,514.242 652.5,515C 636.165,514.05 619.832,513.717 603.5,514C 602.427,510.888 602.427,507.721 603.5,504.5C 610.332,504.049 616.998,503.383 623.5,502.5 Z"/></g>
<g><path style="opacity:1" fill="#fefffe" d="M 601.5,522.5 C 620.818,524.217 638.651,530.217 655,540.5C 655.667,543.5 655.667,546.5 655,549.5C 652.936,550.591 650.769,550.758 648.5,550C 633.035,542.044 616.702,536.377 599.5,533C 598.426,532.261 597.759,531.261 597.5,530C 597.994,526.992 599.327,524.492 601.5,522.5 Z"/></g>
<g><path style="opacity:1" fill="#fefffe" d="M 596.5,540.5 C 602.871,542.176 609.204,544.01 615.5,546C 616.022,546.561 616.355,547.228 616.5,548C 599.957,587.216 576.29,621.549 545.5,651C 535,660.833 524.5,670.667 514,680.5C 510.111,685.371 509.111,690.704 511,696.5C 511.667,702.833 511.667,709.167 511,715.5C 508.414,730.366 507.08,745.366 507,760.5C 503.193,764.79 500.527,764.123 499,758.5C 498.935,741.985 499.435,725.485 500.5,709C 500.479,706.096 499.145,704.262 496.5,703.5C 494.575,703.59 493.408,704.59 493,706.5C 491.964,709.753 491.297,713.086 491,716.5C 490.067,732.489 489.4,748.489 489,764.5C 487.302,765.733 485.302,766.4 483,766.5C 477.849,766.353 474.849,763.686 474,758.5C 466.648,720.943 475.648,688.276 501,660.5C 522.64,641.527 542.973,621.194 562,599.5C 575.556,581.058 587.056,561.391 596.5,540.5 Z"/></g>
<g><path style="opacity:0.966" fill="#fefefe" d="M 46.5,773.5 C 80.5,773.5 114.5,773.5 148.5,773.5C 148.5,787.167 148.5,800.833 148.5,814.5C 139.167,814.5 129.833,814.5 120.5,814.5C 120.5,840.833 120.5,867.167 120.5,893.5C 129.833,893.5 139.167,893.5 148.5,893.5C 148.5,907.167 148.5,920.833 148.5,934.5C 114.5,934.5 80.5,934.5 46.5,934.5C 46.5,920.833 46.5,907.167 46.5,893.5C 55.8333,893.5 65.1667,893.5 74.5,893.5C 74.5,867.167 74.5,840.833 74.5,814.5C 65.1667,814.5 55.8333,814.5 46.5,814.5C 46.5,800.833 46.5,787.167 46.5,773.5 Z M 136.5,777.5 C 138.337,777.639 138.67,778.306 137.5,779.5C 136.702,779.043 136.369,778.376 136.5,777.5 Z M 57.5,779.5 C 58.7047,781.41 58.038,782.743 55.5,783.5C 54.3279,783.081 53.3279,782.415 52.5,781.5C 54.2914,780.83 55.9581,780.163 57.5,779.5 Z M 109.5,780.5 C 110.978,780.238 112.311,780.571 113.5,781.5C 111.537,784.194 110.203,783.861 109.5,780.5 Z M 140.5,780.5 C 142.028,780.517 142.528,781.184 142,782.5C 140.951,783.517 139.784,783.684 138.5,783C 139.756,782.583 140.423,781.75 140.5,780.5 Z M 54.5,804.5 C 57.5572,803.03 58.0572,803.697 56,806.5C 55.7216,805.584 55.2216,804.918 54.5,804.5 Z M 139.5,804.5 C 142.173,804.684 142.84,805.851 141.5,808C 140.167,808.667 138.833,808.667 137.5,808C 138.973,807.29 139.64,806.124 139.5,804.5 Z M 80.5,841.5 C 81.8917,840.478 83.225,840.811 84.5,842.5C 84,842.833 83.5,843.167 83,843.5C 81.9889,842.944 81.1556,842.278 80.5,841.5 Z M 109.5,840.5 C 114.719,839.907 115.386,840.907 111.5,843.5C 110.081,842.995 109.415,841.995 109.5,840.5 Z M 113.5,866.5 C 113.157,868.225 112.157,868.725 110.5,868C 109.446,866.612 109.28,865.112 110,863.5C 110.422,865.426 111.589,866.426 113.5,866.5 Z M 83.5,866.5 C 85.3786,866.393 85.7119,866.893 84.5,868C 81.1247,868.632 80.7913,868.132 83.5,866.5 Z M 81.5,899.5 C 82.8488,898.203 84.1821,898.37 85.5,900C 84.8448,901.487 83.8448,902.653 82.5,903.5C 82.5236,902.214 82.1903,900.88 81.5,899.5 Z M 114.5,901.5 C 112.799,903.423 110.799,903.757 108.5,902.5C 109.098,901.205 109.598,899.872 110,898.5C 110.483,899.448 110.649,900.448 110.5,901.5C 111.833,901.5 113.167,901.5 114.5,901.5 Z M 135.5,898.5 C 137.76,899.238 137.927,900.238 136,901.5C 135.517,900.552 135.351,899.552 135.5,898.5 Z M 56.5,899.5 C 57.7733,900.077 57.7733,900.743 56.5,901.5C 55.537,901.03 55.537,900.363 56.5,899.5 Z M 139.5,900.5 C 140.434,901.568 140.768,902.901 140.5,904.5C 139.448,904.649 138.448,904.483 137.5,904C 138.823,903.184 139.489,902.017 139.5,900.5 Z M 59.5,902.5 C 62.0118,903.216 62.0118,904.216 59.5,905.5C 58.913,904.767 58.913,903.767 59.5,902.5 Z M 84.5,908.5 C 86.337,908.639 86.6704,909.306 85.5,910.5C 84.7025,910.043 84.3691,909.376 84.5,908.5 Z M 109.5,924.5 C 110.66,925.611 111.993,926.611 113.5,927.5C 112.711,929.488 111.545,929.821 110,928.5C 109.51,927.207 109.343,925.873 109.5,924.5 Z M 138.5,925.5 C 140.176,926.183 140.843,927.517 140.5,929.5C 139.127,929.657 137.793,929.49 136.5,929C 137.973,928.29 138.64,927.124 138.5,925.5 Z M 58.5,926.5 C 61.1731,926.684 61.8398,927.851 60.5,930C 59.1667,930.667 57.8333,930.667 56.5,930C 57.9733,929.29 58.6399,928.124 58.5,926.5 Z M 82.5,927.5 C 85.0009,927.511 85.1676,928.178 83,929.5C 82.5357,928.906 82.369,928.239 82.5,927.5 Z"/></g>
<g><path style="opacity:0.963" fill="#fefefe" d="M 157.5,773.5 C 184.169,773.333 210.835,773.5 237.5,774C 244.032,780.198 250.199,786.698 256,793.5C 256.667,814.833 256.667,836.167 256,857.5C 250.833,862 245.667,866.5 240.5,871C 246.063,891.752 251.396,912.585 256.5,933.5C 241.848,934.499 227.182,934.833 212.5,934.5C 208.829,916.812 204.995,899.146 201,881.5C 200.5,899.164 200.333,916.83 200.5,934.5C 186.167,934.5 171.833,934.5 157.5,934.5C 157.5,880.833 157.5,827.167 157.5,773.5 Z M 221.5,779.5 C 223.023,778.254 224.023,778.754 224.5,781C 224.387,782.28 223.72,783.113 222.5,783.5C 222.524,782.214 222.19,780.88 221.5,779.5 Z M 166.5,779.5 C 170.34,780.568 170.507,782.235 167,784.5C 166.506,782.866 166.34,781.199 166.5,779.5 Z M 188.5,780.5 C 189.683,781.504 191.016,782.338 192.5,783C 190.055,783.91 188.722,783.076 188.5,780.5 Z M 247.5,804.5 C 250.041,805.623 250.041,806.956 247.5,808.5C 247.094,807.443 247.094,806.109 247.5,804.5 Z M 217.5,806.5 C 220.001,806.511 220.168,807.178 218,808.5C 217.536,807.906 217.369,807.239 217.5,806.5 Z M 222.5,806.5 C 223.773,807.077 223.773,807.743 222.5,808.5C 221.537,808.03 221.537,807.363 222.5,806.5 Z M 200.5,815.5 C 204.5,815.5 208.5,815.5 212.5,815.5C 212.5,821.167 212.5,826.833 212.5,832.5C 208.5,832.5 204.5,832.5 200.5,832.5C 200.5,826.833 200.5,821.167 200.5,815.5 Z M 166.5,839.5 C 167.782,840.708 167.782,842.042 166.5,843.5C 166.094,842.443 166.094,841.109 166.5,839.5 Z M 188.5,840.5 C 190.199,840.34 191.866,840.506 193.5,841C 191.374,844.34 189.708,844.173 188.5,840.5 Z M 218.5,840.5 C 220.199,840.34 221.866,840.506 223.5,841C 221.374,844.34 219.708,844.173 218.5,840.5 Z M 242.5,840.5 C 243.978,840.238 245.311,840.571 246.5,841.5C 244.537,844.194 243.203,843.861 242.5,840.5 Z M 188.5,867.5 C 190.225,867.843 190.725,868.843 190,870.5C 187.842,869.95 187.342,868.95 188.5,867.5 Z M 233.5,885.5 C 237.588,885.218 238.088,885.885 235,887.5C 233.97,887.164 233.47,886.497 233.5,885.5 Z M 192.5,900.5 C 193.774,901.189 193.774,902.023 192.5,903C 190.926,903.699 189.593,903.365 188.5,902C 190.058,901.79 191.391,901.29 192.5,900.5 Z M 217.5,900.5 C 218.815,901.476 220.148,902.476 221.5,903.5C 218.936,904.564 217.603,903.564 217.5,900.5 Z M 166.5,901.5 C 167.713,902.497 167.546,903.497 166,904.5C 164.205,903.281 164.372,902.281 166.5,901.5 Z M 218.5,924.5 C 219.815,925.476 221.148,926.476 222.5,927.5C 219.581,928.932 218.248,927.932 218.5,924.5 Z M 243.5,924.5 C 244.975,925.262 246.309,925.595 247.5,925.5C 245.537,928.194 244.203,927.861 243.5,924.5 Z M 166.5,926.5 C 165.64,928.97 164.306,929.137 162.5,927C 163.793,926.51 165.127,926.343 166.5,926.5 Z M 188.5,927.5 C 189.708,926.218 191.042,926.218 192.5,927.5C 191.192,928.626 189.858,928.626 188.5,927.5 Z"/></g>
<g><path style="opacity:0.964" fill="#fefefe" d="M 283.5,773.5 C 304.169,773.333 324.836,773.5 345.5,774C 352.032,780.198 358.199,786.698 364,793.5C 364.667,834.833 364.667,876.167 364,917.5C 357.407,922.881 350.907,928.381 344.5,934C 324.167,934.667 303.833,934.667 283.5,934C 277.667,928.167 271.833,922.333 266,916.5C 265.333,874.833 265.333,833.167 266,791.5C 272.036,785.631 277.87,779.631 283.5,773.5 Z M 329.5,779.5 C 331.023,778.254 332.023,778.754 332.5,781C 332.387,782.28 331.72,783.113 330.5,783.5C 330.524,782.214 330.19,780.88 329.5,779.5 Z M 296.5,780.5 C 297.683,781.504 299.016,782.338 300.5,783C 298.055,783.91 296.722,783.076 296.5,780.5 Z M 355.5,804.5 C 358.041,805.623 358.041,806.956 355.5,808.5C 355.094,807.443 355.094,806.109 355.5,804.5 Z M 325.5,806.5 C 328.001,806.511 328.168,807.178 326,808.5C 325.536,807.906 325.369,807.239 325.5,806.5 Z M 330.5,806.5 C 331.773,807.077 331.773,807.743 330.5,808.5C 329.537,808.03 329.537,807.363 330.5,806.5 Z M 308.5,815.5 C 312.5,815.5 316.5,815.5 320.5,815.5C 320.5,840.833 320.5,866.167 320.5,891.5C 316.5,891.5 312.5,891.5 308.5,891.5C 308.5,866.167 308.5,840.833 308.5,815.5 Z M 274.5,839.5 C 275.782,840.708 275.782,842.042 274.5,843.5C 274.094,842.443 274.094,841.109 274.5,839.5 Z M 296.5,840.5 C 298.199,840.34 299.866,840.506 301.5,841C 299.374,844.34 297.708,844.173 296.5,840.5 Z M 326.5,840.5 C 328.199,840.34 329.866,840.506 331.5,841C 329.374,844.34 327.708,844.173 326.5,840.5 Z M 350.5,840.5 C 351.978,840.238 353.311,840.571 354.5,841.5C 352.537,844.194 351.203,843.861 350.5,840.5 Z M 355.5,865.5 C 356.404,866.209 356.737,867.209 356.5,868.5C 350.587,867.985 350.253,866.985 355.5,865.5 Z M 300.5,866.5 C 302.549,866.706 302.883,867.539 301.5,869C 299.926,869.699 298.593,869.365 297.5,868C 298.737,867.768 299.737,867.268 300.5,866.5 Z M 326.5,899.5 C 327.815,900.476 329.148,901.476 330.5,902.5C 327.581,903.932 326.248,902.932 326.5,899.5 Z M 274.5,901.5 C 275.043,901.56 275.376,901.893 275.5,902.5C 274.635,903.583 273.635,903.749 272.5,903C 273.416,902.722 274.082,902.222 274.5,901.5 Z M 300.5,901.5 C 299.64,903.97 298.306,904.137 296.5,902C 297.793,901.51 299.127,901.343 300.5,901.5 Z M 352.5,901.5 C 356.588,901.218 357.088,901.885 354,903.5C 352.97,903.164 352.47,902.497 352.5,901.5 Z M 326.5,925.5 C 329.924,925.698 330.758,927.032 329,929.5C 327.519,928.529 326.685,927.196 326.5,925.5 Z M 296.5,927.5 C 297.946,926.387 299.613,926.22 301.5,927C 300.667,927.833 299.833,928.667 299,929.5C 298.292,928.619 297.458,927.953 296.5,927.5 Z"/></g>
<g><path style="opacity:0.962" fill="#fefefe" d="M 373.5,773.5 C 387.183,773.167 400.85,773.501 414.5,774.5C 419.099,791.8 423.599,809.133 428,826.5C 428.5,808.836 428.667,791.17 428.5,773.5C 443.167,773.5 457.833,773.5 472.5,773.5C 472.5,827.167 472.5,880.833 472.5,934.5C 458.484,934.833 444.484,934.499 430.5,933.5C 425.845,915.882 421.345,898.215 417,880.5C 416.5,898.497 416.333,916.497 416.5,934.5C 402.167,934.5 387.833,934.5 373.5,934.5C 373.5,880.833 373.5,827.167 373.5,773.5 Z M 437.5,779.5 C 439.023,778.254 440.023,778.754 440.5,781C 440.387,782.28 439.72,783.113 438.5,783.5C 438.524,782.214 438.19,780.88 437.5,779.5 Z M 458.5,779.5 C 459.978,779.238 461.311,779.571 462.5,780.5C 460.537,783.194 459.203,782.861 458.5,779.5 Z M 404.5,780.5 C 405.683,781.504 407.016,782.338 408.5,783C 406.055,783.91 404.722,783.076 404.5,780.5 Z M 463.5,804.5 C 466.041,805.623 466.041,806.956 463.5,808.5C 463.094,807.443 463.094,806.109 463.5,804.5 Z M 433.5,806.5 C 436.001,806.511 436.168,807.178 434,808.5C 433.536,807.906 433.369,807.239 433.5,806.5 Z M 438.5,806.5 C 439.773,807.077 439.773,807.743 438.5,808.5C 437.537,808.03 437.537,807.363 438.5,806.5 Z M 382.5,839.5 C 383.782,840.708 383.782,842.042 382.5,843.5C 382.094,842.443 382.094,841.109 382.5,839.5 Z M 404.5,840.5 C 406.199,840.34 407.866,840.506 409.5,841C 407.374,844.34 405.708,844.173 404.5,840.5 Z M 434.5,840.5 C 436.199,840.34 437.866,840.506 439.5,841C 437.374,844.34 435.708,844.173 434.5,840.5 Z M 458.5,840.5 C 459.978,840.238 461.311,840.571 462.5,841.5C 460.537,844.194 459.203,843.861 458.5,840.5 Z M 463.5,865.5 C 464.404,866.209 464.737,867.209 464.5,868.5C 458.587,867.985 458.253,866.985 463.5,865.5 Z M 405.5,866.5 C 407.103,866.312 408.437,866.812 409.5,868C 407.537,868.844 406.204,868.344 405.5,866.5 Z M 434.5,899.5 C 435.815,900.476 437.148,901.476 438.5,902.5C 435.581,903.932 434.248,902.932 434.5,899.5 Z M 382.5,901.5 C 383.043,901.56 383.376,901.893 383.5,902.5C 382.635,903.583 381.635,903.749 380.5,903C 381.416,902.722 382.082,902.222 382.5,901.5 Z M 408.5,901.5 C 407.64,903.97 406.306,904.137 404.5,902C 405.793,901.51 407.127,901.343 408.5,901.5 Z M 460.5,901.5 C 464.588,901.218 465.088,901.885 462,903.5C 460.97,903.164 460.47,902.497 460.5,901.5 Z M 379.5,924.5 C 383.97,924.03 384.47,925.03 381,927.5C 379.961,926.756 379.461,925.756 379.5,924.5 Z M 459.5,924.5 C 463.395,924.797 464.062,926.13 461.5,928.5C 459.889,927.68 459.222,926.346 459.5,924.5 Z M 434.5,925.5 C 437.924,925.698 438.758,927.032 437,929.5C 435.519,928.529 434.685,927.196 434.5,925.5 Z M 404.5,927.5 C 405.946,926.387 407.613,926.22 409.5,927C 408.667,927.833 407.833,928.667 407,929.5C 406.292,928.619 405.458,927.953 404.5,927.5 Z"/></g>
<g><path style="opacity:0.966" fill="#fefefe" d="M 567.5,773.5 C 594.5,773.5 621.5,773.5 648.5,773.5C 648.5,787.167 648.5,800.833 648.5,814.5C 629.833,814.5 611.167,814.5 592.5,814.5C 592.5,840.167 592.5,865.833 592.5,891.5C 611.167,891.5 629.833,891.5 648.5,891.5C 648.5,905.833 648.5,920.167 648.5,934.5C 621.498,934.667 594.498,934.5 567.5,934C 561.667,928.167 555.833,922.333 550,916.5C 549.333,874.833 549.333,833.167 550,791.5C 556.036,785.631 561.87,779.631 567.5,773.5 Z M 613.5,779.5 C 615.023,778.254 616.023,778.754 616.5,781C 616.387,782.28 615.72,783.113 614.5,783.5C 614.524,782.214 614.19,780.88 613.5,779.5 Z M 639.5,778.5 C 642.388,779.54 642.721,780.873 640.5,782.5C 639.571,781.311 639.238,779.978 639.5,778.5 Z M 580.5,780.5 C 581.683,781.504 583.016,782.338 584.5,783C 582.055,783.91 580.722,783.076 580.5,780.5 Z M 639.5,804.5 C 641.465,804.948 641.798,805.948 640.5,807.5C 639.614,806.675 639.281,805.675 639.5,804.5 Z M 609.5,805.5 C 611.337,805.639 611.67,806.306 610.5,807.5C 609.702,807.043 609.369,806.376 609.5,805.5 Z M 634.5,805.5 C 636.337,805.639 636.67,806.306 635.5,807.5C 634.702,807.043 634.369,806.376 634.5,805.5 Z M 614.5,806.5 C 615.773,807.077 615.773,807.743 614.5,808.5C 613.537,808.03 613.537,807.363 614.5,806.5 Z M 558.5,839.5 C 559.782,840.708 559.782,842.042 558.5,843.5C 558.094,842.443 558.094,841.109 558.5,839.5 Z M 580.5,840.5 C 582.199,840.34 583.866,840.506 585.5,841C 583.374,844.34 581.708,844.173 580.5,840.5 Z M 584.5,866.5 C 586.549,866.706 586.883,867.539 585.5,869C 583.926,869.699 582.593,869.365 581.5,868C 582.737,867.768 583.737,867.268 584.5,866.5 Z M 610.5,899.5 C 611.815,900.476 613.148,901.476 614.5,902.5C 611.581,903.932 610.248,902.932 610.5,899.5 Z M 558.5,901.5 C 559.043,901.56 559.376,901.893 559.5,902.5C 558.635,903.583 557.635,903.749 556.5,903C 557.416,902.722 558.082,902.222 558.5,901.5 Z M 584.5,901.5 C 583.64,903.97 582.306,904.137 580.5,902C 581.793,901.51 583.127,901.343 584.5,901.5 Z M 636.5,901.5 C 637.675,901.281 638.675,901.614 639.5,902.5C 637.948,903.798 636.948,903.465 636.5,901.5 Z M 636.5,924.5 C 638.606,924.762 639.773,925.762 640,927.5C 637.342,928.694 636.176,927.694 636.5,924.5 Z M 610.5,925.5 C 615.128,925.597 615.961,926.93 613,929.5C 611.519,928.529 610.685,927.196 610.5,925.5 Z M 580.5,927.5 C 581.946,926.387 583.613,926.22 585.5,927C 584.667,927.833 583.833,928.667 583,929.5C 582.292,928.619 581.458,927.953 580.5,927.5 Z"/></g>
<g><path style="opacity:0.963" fill="#fefefe" d="M 675.5,773.5 C 696.169,773.333 716.836,773.5 737.5,774C 743.333,779.833 749.167,785.667 755,791.5C 756.49,839.082 756.99,886.749 756.5,934.5C 741.833,934.5 727.167,934.5 712.5,934.5C 712.5,920.167 712.5,905.833 712.5,891.5C 708.5,891.5 704.5,891.5 700.5,891.5C 700.5,905.833 700.5,920.167 700.5,934.5C 686.167,934.5 671.833,934.5 657.5,934.5C 657.333,886.832 657.5,839.166 658,791.5C 664.036,785.631 669.87,779.631 675.5,773.5 Z M 721.5,779.5 C 723.023,778.254 724.023,778.754 724.5,781C 724.387,782.28 723.72,783.113 722.5,783.5C 722.524,782.214 722.19,780.88 721.5,779.5 Z M 688.5,780.5 C 689.683,781.504 691.016,782.338 692.5,783C 690.055,783.91 688.722,783.076 688.5,780.5 Z M 747.5,804.5 C 750.041,805.623 750.041,806.956 747.5,808.5C 747.094,807.443 747.094,806.109 747.5,804.5 Z M 717.5,806.5 C 720.001,806.511 720.168,807.178 718,808.5C 717.536,807.906 717.369,807.239 717.5,806.5 Z M 722.5,806.5 C 723.773,807.077 723.773,807.743 722.5,808.5C 721.537,808.03 721.537,807.363 722.5,806.5 Z M 700.5,815.5 C 704.5,815.5 708.5,815.5 712.5,815.5C 712.5,826.5 712.5,837.5 712.5,848.5C 708.5,848.5 704.5,848.5 700.5,848.5C 700.5,837.5 700.5,826.5 700.5,815.5 Z M 666.5,839.5 C 667.782,840.708 667.782,842.042 666.5,843.5C 666.094,842.443 666.094,841.109 666.5,839.5 Z M 688.5,840.5 C 690.199,840.34 691.866,840.506 693.5,841C 691.374,844.34 689.708,844.173 688.5,840.5 Z M 718.5,840.5 C 720.199,840.34 721.866,840.506 723.5,841C 721.374,844.34 719.708,844.173 718.5,840.5 Z M 742.5,840.5 C 743.978,840.238 745.311,840.571 746.5,841.5C 744.537,844.194 743.203,843.861 742.5,840.5 Z M 747.5,865.5 C 748.404,866.209 748.737,867.209 748.5,868.5C 742.587,867.985 742.253,866.985 747.5,865.5 Z M 692.5,866.5 C 694.549,866.706 694.883,867.539 693.5,869C 691.926,869.699 690.593,869.365 689.5,868C 690.737,867.768 691.737,867.268 692.5,866.5 Z M 718.5,899.5 C 719.815,900.476 721.148,901.476 722.5,902.5C 719.581,903.932 718.248,902.932 718.5,899.5 Z M 666.5,901.5 C 667.043,901.56 667.376,901.893 667.5,902.5C 666.635,903.583 665.635,903.749 664.5,903C 665.416,902.722 666.082,902.222 666.5,901.5 Z M 692.5,901.5 C 691.64,903.97 690.306,904.137 688.5,902C 689.793,901.51 691.127,901.343 692.5,901.5 Z M 744.5,901.5 C 745.675,901.281 746.675,901.614 747.5,902.5C 745.948,903.798 744.948,903.465 744.5,901.5 Z M 667.5,924.5 C 668.774,925.189 668.774,926.023 667.5,927C 665.926,927.699 664.593,927.365 663.5,926C 665.058,925.79 666.391,925.29 667.5,924.5 Z M 718.5,925.5 C 721.924,925.698 722.758,927.032 721,929.5C 719.519,928.529 718.685,927.196 718.5,925.5 Z M 744.5,925.5 C 745.978,925.238 747.311,925.571 748.5,926.5C 746.537,929.194 745.203,928.861 744.5,925.5 Z M 688.5,927.5 C 689.946,926.387 691.613,926.22 693.5,927C 692.667,927.833 691.833,928.667 691,929.5C 690.292,928.619 689.458,927.953 688.5,927.5 Z"/></g>
<g><path style="opacity:0.966" fill="#fefefe" d="M 765.5,773.5 C 799.5,773.5 833.5,773.5 867.5,773.5C 867.5,787.167 867.5,800.833 867.5,814.5C 858.167,814.5 848.833,814.5 839.5,814.5C 839.5,854.5 839.5,894.5 839.5,934.5C 824.167,934.5 808.833,934.5 793.5,934.5C 793.5,894.5 793.5,854.5 793.5,814.5C 784.167,814.5 774.833,814.5 765.5,814.5C 765.5,800.833 765.5,787.167 765.5,773.5 Z M 855.5,777.5 C 857.337,777.639 857.67,778.306 856.5,779.5C 855.702,779.043 855.369,778.376 855.5,777.5 Z M 776.5,779.5 C 777.705,781.41 777.038,782.743 774.5,783.5C 773.328,783.081 772.328,782.415 771.5,781.5C 773.291,780.83 774.958,780.163 776.5,779.5 Z M 828.5,780.5 C 829.978,780.238 831.311,780.571 832.5,781.5C 830.537,784.194 829.203,783.861 828.5,780.5 Z M 859.5,780.5 C 861.028,780.517 861.528,781.184 861,782.5C 859.951,783.517 858.784,783.684 857.5,783C 858.756,782.583 859.423,781.75 859.5,780.5 Z M 773.5,804.5 C 776.557,803.03 777.057,803.697 775,806.5C 774.722,805.584 774.222,804.918 773.5,804.5 Z M 858.5,804.5 C 861.173,804.684 861.84,805.851 860.5,808C 859.167,808.667 857.833,808.667 856.5,808C 857.973,807.29 858.64,806.124 858.5,804.5 Z M 799.5,841.5 C 800.892,840.478 802.225,840.811 803.5,842.5C 803,842.833 802.5,843.167 802,843.5C 800.989,842.944 800.156,842.278 799.5,841.5 Z M 828.5,840.5 C 833.719,839.907 834.386,840.907 830.5,843.5C 829.081,842.995 828.415,841.995 828.5,840.5 Z M 832.5,866.5 C 832.157,868.225 831.157,868.725 829.5,868C 828.446,866.612 828.28,865.112 829,863.5C 829.422,865.426 830.589,866.426 832.5,866.5 Z M 802.5,866.5 C 804.379,866.393 804.712,866.893 803.5,868C 800.125,868.632 799.791,868.132 802.5,866.5 Z M 801.5,902.5 C 801.179,899.12 802.179,898.287 804.5,900C 803.627,901.045 802.627,901.878 801.5,902.5 Z M 828.5,898.5 C 829.404,899.209 829.737,900.209 829.5,901.5C 831.226,901.185 832.893,901.019 834.5,901C 829.57,905.033 827.57,904.199 828.5,898.5 Z M 803.5,908.5 C 805.337,908.639 805.67,909.306 804.5,910.5C 803.702,910.043 803.369,909.376 803.5,908.5 Z M 828.5,924.5 C 829.66,925.611 830.993,926.611 832.5,927.5C 831.711,929.488 830.545,929.821 829,928.5C 828.51,927.207 828.343,925.873 828.5,924.5 Z M 801.5,927.5 C 804.001,927.511 804.168,928.178 802,929.5C 801.536,928.906 801.369,928.239 801.5,927.5 Z"/></g>
</svg>
